<svg t="1660966190026" class="icon" viewBox="0 0 1024 1024" version="1.1" xmlns="http://www.w3.org/2000/svg" p-id="5199" width="64" height="64"><path d="M507.45344 133.89824c-203.48928 0-368.64 165.15072-368.64 368.64 0 203.48928 165.15072 368.64 368.64 368.64 203.48928 0 368.64-165.15072 368.64-368.64C876.09344 299.04896 710.94272 133.89824 507.45344 133.89824L507.45344 133.89824zM654.90944 491.47904l-125.3376 0 0 62.6688 99.5328 0c13.27104 0 23.9616 10.69056 23.9616 23.9616 0 13.27104-10.69056 23.9616-23.9616 23.9616l-99.5328 0 0 111.69792c0 13.27104-10.69056 23.9616-23.9616 23.9616s-23.9616-10.69056-23.9616-23.9616l0-111.69792-95.8464 0c-13.27104 0-23.9616-10.69056-23.9616-23.9616 0-13.27104 10.69056-23.9616 23.9616-23.9616l95.8464 0 0-62.6688-121.6512 0c-13.27104 0-23.9616-10.69056-23.9616-23.9616 0-13.27104 10.69056-23.9616 23.9616-23.9616l95.8464 0-103.2192-110.96064c-9.216-9.95328-8.47872-25.06752 1.47456-34.28352 9.95328-9.216 25.43616-8.47872 34.65216 1.47456l117.22752 127.1808 116.85888-127.1808c9.216-9.95328 24.69888-10.69056 34.65216-1.47456 9.95328 9.216 10.69056 23.9616 1.47456 34.28352l-102.85056 110.96064 98.79552 0c13.27104 0 23.9616 10.69056 23.9616 23.9616C678.85056 480.78848 667.81184 491.47904 654.90944 491.47904L654.90944 491.47904zM654.90944 491.47904" p-id="5200" fill="#f4516c"></path></svg>
